<svg id="svg" xmlns="http://www.w3.org/2000/svg" xmlns:xlink="http://www.w3.org/1999/xlink" width="400" height="342.4778761061947" viewBox="0, 0, 400,342.4778761061947"><g id="svgg"><path id="path0" d="M150.442 3.529 C 148.252 3.896,144.469 4.409,142.035 4.670 C 139.602 4.930,135.529 5.968,132.984 6.976 C 130.439 7.984,127.751 8.576,127.010 8.292 C 126.270 8.008,125.664 8.240,125.664 8.807 C 125.664 9.375,125.265 9.593,124.779 9.292 C 124.292 8.991,123.894 9.120,123.894 9.579 C 123.894 10.037,121.803 11.472,119.248 12.766 C 107.824 18.554,98.737 26.095,91.941 35.428 L 88.297 40.432 85.078 39.340 C 80.660 37.840,67.604 36.775,66.934 37.859 C 66.643 38.330,68.289 39.514,70.592 40.489 C 81.071 44.928,85.330 49.936,90.731 64.172 C 92.896 69.877,95.929 76.588,97.473 79.086 C 99.016 81.584,100.282 84.104,100.287 84.685 C 100.291 85.267,100.568 85.665,100.902 85.570 C 101.236 85.476,103.013 87.190,104.851 89.381 C 116.251 102.964,132.910 114.031,151.770 120.551 C 154.690 121.560,157.279 122.634,157.522 122.938 C 157.765 123.241,159.358 123.609,161.062 123.754 C 162.765 123.899,166.350 124.548,169.027 125.196 C 171.704 125.844,175.487 126.688,177.434 127.072 C 181.133 127.801,216.963 128.174,216.266 127.476 C 215.700 126.909,235.649 123.059,236.482 123.574 C 236.859 123.807,237.168 123.534,237.168 122.966 C 237.168 122.399,237.765 122.164,238.496 122.444 C 239.226 122.724,239.823 122.583,239.823 122.130 C 239.823 121.678,241.724 120.743,244.046 120.053 C 269.946 112.362,294.669 89.842,303.578 65.827 C 307.998 53.911,310.497 49.617,315.299 45.681 C 319.784 42.007,327.174 38.651,329.138 39.398 C 330.261 39.825,330.315 39.710,329.414 38.802 C 327.758 37.135,313.437 37.704,308.850 39.620 C 306.932 40.421,306.401 40.231,304.867 38.193 C 295.332 25.525,274.101 9.432,265.487 8.342 C 264.757 8.250,262.367 7.501,260.177 6.677 C 253.697 4.240,231.858 1.861,231.858 3.592 C 231.858 4.108,232.236 4.296,232.697 4.011 C 235.111 2.519,260.724 13.363,259.569 15.388 C 259.261 15.929,259.324 16.087,259.709 15.739 C 262.032 13.642,275.452 26.336,279.391 34.356 C 283.204 42.120,283.037 54.696,279.014 62.832 C 275.974 68.977,266.770 79.997,265.389 79.143 C 264.932 78.861,264.667 79.026,264.801 79.511 C 265.115 80.648,255.744 87.710,254.742 87.090 C 254.324 86.832,253.982 86.994,253.982 87.449 C 253.982 89.274,239.253 95.990,233.628 96.728 C 232.898 96.824,231.775 97.400,231.131 98.009 C 230.488 98.617,229.095 99.166,228.034 99.229 C 224.943 99.412,222.113 99.855,215.044 101.263 C 206.357 102.993,186.477 103.004,178.319 101.283 C 174.912 100.565,170.764 99.797,169.101 99.577 C 165.063 99.044,153.378 94.993,149.728 92.861 C 148.118 91.920,146.285 91.150,145.654 91.150 C 145.023 91.150,143.477 90.197,142.219 89.031 C 140.961 87.865,139.750 87.094,139.528 87.316 C 138.805 88.038,125.214 76.420,125.464 75.295 C 125.598 74.695,125.335 74.435,124.879 74.717 C 123.761 75.408,118.255 67.772,115.260 61.379 C 111.738 53.860,111.723 41.746,115.227 34.269 C 117.448 29.530,130.515 15.176,131.611 16.272 C 131.830 16.491,132.872 15.925,133.925 15.014 C 136.335 12.929,143.445 9.139,148.165 7.422 C 155.244 4.848,159.605 3.628,160.267 4.038 C 160.637 4.267,161.190 4.049,161.496 3.554 C 162.136 2.519,156.558 2.506,150.442 3.529 M387.686 11.622 C 387.130 34.706,377.620 52.502,357.965 67.242 C 352.548 71.304,345.133 75.629,345.133 74.726 C 345.133 74.361,344.436 74.688,343.584 75.454 C 341.892 76.976,330.537 82.316,325.367 84.023 C 321.736 85.221,321.580 85.555,323.420 88.182 C 324.133 89.200,324.432 90.348,324.084 90.734 C 323.736 91.119,323.929 91.160,324.513 90.825 C 325.728 90.128,327.710 93.198,326.739 94.273 C 326.391 94.659,326.590 94.696,327.182 94.356 C 327.845 93.975,329.034 94.936,330.280 96.858 C 332.741 100.658,333.096 100.679,338.353 97.345 C 340.656 95.885,342.733 94.690,342.969 94.690 C 343.205 94.690,344.998 93.680,346.953 92.446 C 348.908 91.212,350.892 90.439,351.360 90.728 C 351.829 91.018,352.212 90.857,352.212 90.370 C 352.212 89.883,354.543 88.242,357.392 86.724 C 363.812 83.302,374.676 74.561,378.637 69.630 C 380.272 67.595,382.064 66.062,382.619 66.224 C 383.174 66.386,383.362 66.253,383.036 65.927 C 382.710 65.601,383.987 62.282,385.874 58.552 C 392.321 45.804,394.241 28.465,390.739 14.602 C 389.879 11.195,389.096 7.718,389.001 6.876 C 388.526 2.701,387.842 5.171,387.686 11.622 M4.628 10.177 C -1.854 32.942,2.802 55.733,17.127 71.367 C 20.119 74.632,22.456 77.506,22.321 77.755 C 22.186 78.004,22.616 78.287,23.276 78.384 C 23.937 78.481,26.529 80.113,29.037 82.011 C 31.544 83.909,36.092 86.755,39.143 88.337 C 42.194 89.918,47.080 92.603,50.000 94.305 C 59.554 99.871,61.220 100.432,62.556 98.535 C 63.189 97.637,65.501 94.660,67.694 91.919 C 72.587 85.804,72.595 85.527,67.920 84.053 C 65.852 83.400,62.370 81.943,60.184 80.814 C 57.998 79.685,55.783 78.761,55.262 78.761 C 54.742 78.761,53.354 77.865,52.179 76.770 C 51.003 75.675,49.833 74.874,49.578 74.989 C 48.649 75.412,46.018 74.193,46.018 73.339 C 46.018 72.857,45.665 72.680,45.233 72.947 C 44.801 73.214,43.956 72.839,43.355 72.114 C 42.753 71.389,41.802 70.796,41.240 70.796 C 39.727 70.796,28.064 61.284,26.808 59.026 C 26.213 57.956,25.712 57.448,25.695 57.898 C 25.678 58.348,23.875 56.413,21.689 53.598 C 19.503 50.782,17.971 48.063,18.286 47.554 C 18.611 47.029,18.433 46.892,17.875 47.237 C 15.175 48.905,8.472 30.019,6.763 15.929 C 5.652 6.777,5.620 6.691,4.628 10.177 M190.120 46.420 C 188.371 49.075,186.629 50.967,186.249 50.624 C 185.868 50.281,185.822 50.464,186.147 51.031 C 186.471 51.598,185.591 55.182,184.192 58.995 C 181.019 67.639,178.032 80.343,177.692 86.642 C 177.401 92.025,177.491 92.093,186.536 93.337 L 190.871 93.933 191.477 79.046 C 192.015 65.852,193.009 53.185,194.189 44.469 C 194.739 40.411,193.772 40.874,190.120 46.420 M199.113 43.089 C 199.112 43.970,199.716 51.858,200.454 60.619 C 201.193 69.381,202.090 80.499,202.447 85.327 C 203.055 93.528,203.226 94.115,205.047 94.247 C 206.120 94.325,206.793 94.058,206.544 93.654 C 206.294 93.251,207.060 92.920,208.244 92.920 C 216.929 92.920,217.238 91.907,213.757 74.836 C 212.572 69.027,211.841 63.888,212.133 63.416 C 212.424 62.944,212.248 62.815,211.740 63.129 C 211.198 63.464,210.203 61.788,209.328 59.062 C 206.769 51.098,199.118 39.134,199.113 43.089 M177.434 46.756 C 166.847 52.158,155.238 63.335,151.437 71.785 C 147.410 80.737,147.369 81.077,150.192 82.217 C 151.547 82.763,154.845 84.361,157.522 85.768 C 163.205 88.755,163.375 88.711,164.161 84.062 C 164.490 82.116,165.084 80.725,165.483 80.971 C 165.881 81.217,166.021 80.709,165.794 79.842 C 164.822 76.125,173.553 59.050,181.639 48.854 C 187.177 41.871,187.091 41.828,177.434 46.756 M207.965 44.196 C 207.965 44.654,208.369 45.278,208.864 45.584 C 209.359 45.890,209.528 46.521,209.241 46.986 C 208.953 47.451,209.155 47.722,209.689 47.588 C 212.552 46.871,226.113 71.496,228.726 82.157 C 230.037 87.508,230.491 88.343,231.728 87.684 C 232.530 87.256,234.181 86.766,235.398 86.595 C 236.615 86.423,237.810 86.075,238.053 85.820 C 239.271 84.546,243.458 82.301,244.617 82.301 C 247.363 82.301,239.316 64.681,234.893 61.010 C 234.208 60.442,233.904 59.562,234.217 59.055 C 234.530 58.548,234.380 58.385,233.883 58.692 C 233.386 58.999,232.230 58.416,231.313 57.396 C 226.325 51.849,207.965 41.468,207.965 44.196 M82.301 94.224 C 75.955 102.836,75.953 102.726,82.499 105.258 C 88.430 107.552,96.862 111.830,102.628 115.470 C 107.002 118.231,106.748 118.253,108.442 114.977 C 109.791 112.368,109.764 112.182,107.801 110.515 C 101.834 105.451,93.856 96.856,91.137 92.563 C 87.316 86.532,88.073 86.390,82.301 94.224 M303.569 92.660 C 301.882 95.257,296.980 100.887,292.676 105.171 C 284.410 113.398,284.416 113.382,287.219 118.382 C 287.292 118.513,289.701 117.078,292.570 115.191 C 298.796 111.097,304.812 107.968,311.726 105.230 C 314.524 104.121,316.814 102.895,316.814 102.504 C 316.814 102.114,314.524 98.677,311.726 94.866 L 306.637 87.938 303.569 92.660 M67.291 113.219 C 66.107 115.135,64.756 116.467,64.291 116.179 C 63.825 115.891,63.703 116.075,64.020 116.588 C 64.337 117.101,62.390 120.597,59.693 124.356 C 56.996 128.115,54.906 131.267,55.049 131.362 C 55.193 131.456,59.222 133.059,64.004 134.923 C 68.787 136.787,73.286 138.899,74.002 139.616 C 74.719 140.332,75.547 140.677,75.842 140.383 C 76.309 139.915,81.972 142.860,83.186 144.201 C 83.429 144.470,84.198 144.814,84.894 144.965 C 85.590 145.115,87.244 146.011,88.570 146.956 C 92.041 149.427,92.206 149.319,95.772 142.257 C 97.554 138.728,100.089 134.089,101.405 131.948 C 102.721 129.807,103.386 128.309,102.884 128.620 C 102.382 128.930,101.446 128.552,100.804 127.779 C 99.526 126.239,85.318 116.659,83.186 115.899 C 80.120 114.806,76.991 112.935,76.991 112.195 C 76.991 111.758,76.605 111.639,76.132 111.931 C 75.660 112.223,74.087 111.848,72.636 111.098 C 69.295 109.370,69.791 109.173,67.291 113.219 M316.321 113.245 C 308.141 117.176,293.065 126.912,292.375 128.711 C 292.119 129.378,292.885 131.469,294.077 133.357 C 295.269 135.246,297.535 139.365,299.112 142.511 C 300.689 145.656,302.109 148.373,302.266 148.548 C 302.424 148.723,303.671 148.074,305.038 147.106 C 309.957 143.621,323.375 136.957,331.087 134.169 L 338.955 131.324 333.373 123.405 C 330.303 119.050,327.028 114.192,326.094 112.611 C 324.050 109.147,324.977 109.087,316.321 113.245 M268.655 121.124 C 267.777 122.544,254.756 128.540,252.549 128.540 C 251.350 128.540,250.583 128.754,250.844 129.015 C 251.665 129.836,244.061 132.800,240.628 132.998 C 238.824 133.101,237.493 133.424,237.670 133.716 C 238.088 134.403,229.437 136.335,224.449 136.668 C 222.318 136.811,220.206 137.155,219.755 137.434 C 218.337 138.311,193.032 139.996,191.890 139.291 C 191.291 138.921,188.989 138.692,186.773 138.782 C 184.556 138.873,180.354 138.557,177.434 138.081 C 174.513 137.605,170.332 137.010,168.142 136.758 C 165.951 136.507,161.969 135.672,159.292 134.903 C 156.615 134.134,153.031 133.151,151.327 132.719 C 147.530 131.755,138.166 127.969,132.589 125.143 L 128.449 123.045 124.729 134.564 C 122.683 140.899,121.214 146.288,121.465 146.538 C 126.675 151.749,261.728 152.403,270.053 147.258 C 271.016 146.662,270.500 143.614,268.067 135.532 C 266.326 129.750,266.437 128.319,268.624 128.319 C 269.986 128.319,271.636 131.754,274.467 140.487 C 276.010 145.248,276.557 146.018,278.395 146.018 C 281.328 146.018,281.189 145.189,276.032 131.925 C 271.897 121.288,270.142 118.719,268.655 121.124 M116.832 134.679 C 115.281 139.212,113.813 143.418,113.570 144.027 C 113.326 144.635,113.488 145.133,113.929 145.133 C 114.779 145.133,120.664 127.449,120.026 126.811 C 119.821 126.605,118.383 130.146,116.832 134.679 M342.920 138.025 C 340.973 138.446,338.259 139.222,336.889 139.749 C 335.519 140.277,333.648 140.708,332.731 140.708 C 331.815 140.708,329.990 141.704,328.677 142.920 C 327.364 144.137,325.903 145.133,325.430 145.133 C 324.957 145.133,323.263 146.228,321.665 147.566 C 320.067 148.905,315.634 152.161,311.813 154.802 C 297.950 164.386,288.512 171.824,287.030 174.332 C 286.197 175.742,285.195 176.697,284.804 176.455 C 284.412 176.212,284.353 176.698,284.674 177.533 C 284.996 178.373,284.893 178.827,284.442 178.548 C 283.481 177.954,283.351 188.071,284.308 189.028 C 284.664 189.384,284.956 188.911,284.956 187.976 C 284.956 185.523,290.691 178.869,297.345 173.599 C 312.449 161.639,318.792 157.014,319.690 157.306 C 320.055 157.425,320.354 157.161,320.354 156.720 C 320.354 155.960,327.603 150.290,331.391 148.088 C 333.416 146.911,336.283 148.004,336.283 149.953 C 336.283 150.987,322.943 161.861,322.365 161.298 C 322.255 161.190,321.229 161.989,320.086 163.073 C 318.943 164.157,315.337 167.035,312.072 169.469 C 294.657 182.451,295.046 181.946,291.643 196.018 C 290.349 201.372,289.079 206.464,288.822 207.334 C 288.445 208.613,275.268 217.778,242.920 239.261 C 241.947 239.907,238.819 241.991,235.970 243.891 C 233.120 245.791,230.134 247.752,229.333 248.248 C 228.532 248.745,224.343 251.533,220.025 254.443 C 215.707 257.353,211.326 260.219,210.290 260.811 C 207.775 262.249,207.894 263.917,210.607 265.263 C 211.831 265.869,214.167 267.178,215.799 268.172 C 217.900 269.450,219.086 269.712,219.863 269.067 C 220.466 268.567,221.221 268.419,221.542 268.739 C 221.862 269.060,222.124 268.906,222.124 268.398 C 222.124 267.420,238.375 256.305,239.390 256.589 C 239.717 256.680,240.446 256.183,241.010 255.484 C 241.961 254.305,257.432 243.540,270.728 234.806 C 273.860 232.748,276.811 231.305,277.286 231.598 C 277.761 231.892,277.913 231.749,277.624 231.282 C 277.335 230.814,278.966 229.170,281.249 227.627 C 283.531 226.084,287.105 223.618,289.191 222.146 C 291.276 220.673,293.184 219.469,293.430 219.469 C 293.676 219.469,295.004 218.636,296.381 217.618 C 299.458 215.343,301.894 215.889,320.733 223.077 C 323.131 223.992,325.321 225.048,325.600 225.424 C 325.878 225.799,326.504 226.129,326.991 226.157 C 329.000 226.274,336.283 228.570,336.283 229.087 C 336.282 229.759,342.296 229.601,346.457 228.820 C 349.607 228.229,355.709 224.369,363.578 217.990 C 366.179 215.882,368.729 214.418,369.246 214.737 C 369.794 215.076,369.925 214.898,369.562 214.310 C 369.200 213.724,369.977 212.647,371.416 211.739 C 372.779 210.880,377.408 207.389,381.703 203.982 C 385.999 200.575,389.607 197.987,389.722 198.230 C 390.059 198.944,395.208 192.718,396.675 189.823 C 401.980 179.355,399.752 172.973,386.148 159.666 C 380.138 153.788,375.221 149.157,375.221 149.376 C 375.221 149.595,374.628 149.282,373.904 148.681 C 373.179 148.079,372.844 147.134,373.160 146.581 C 373.477 146.028,373.424 145.856,373.044 146.198 C 372.664 146.541,370.552 145.445,368.350 143.764 C 366.149 142.083,363.836 140.708,363.210 140.708 C 362.585 140.708,361.547 140.210,360.904 139.602 C 360.261 138.993,358.938 138.401,357.965 138.286 C 350.919 137.453,345.961 137.367,342.920 138.025 M46.455 140.700 C 46.654 141.022,48.529 141.996,50.621 142.865 C 54.101 144.310,62.185 148.297,69.869 152.359 C 71.549 153.247,73.839 154.769,74.957 155.742 C 76.076 156.715,76.991 157.289,76.991 157.019 C 76.991 156.251,85.042 162.218,86.165 163.819 C 86.717 164.605,87.446 165.203,87.786 165.147 C 88.126 165.090,91.194 167.542,94.603 170.594 L 100.802 176.145 101.904 172.469 C 102.973 168.901,102.929 168.730,100.396 166.607 C 98.961 165.405,96.889 163.665,95.790 162.741 C 94.691 161.818,93.583 161.062,93.328 161.062 C 93.072 161.062,90.143 159.270,86.819 157.080 C 83.494 154.889,80.512 153.097,80.192 153.097 C 79.873 153.097,78.026 152.097,76.089 150.874 C 74.151 149.651,72.566 148.871,72.566 149.141 C 72.566 149.411,70.839 148.620,68.728 147.382 C 66.616 146.145,64.240 145.133,63.448 145.133 C 61.671 145.133,55.546 142.357,54.660 141.150 C 54.302 140.664,54.003 140.501,53.996 140.789 C 53.988 141.077,52.207 141.043,50.038 140.714 C 47.869 140.385,46.257 140.378,46.455 140.700 M24.804 151.166 C 22.777 152.294,20.376 153.272,19.470 153.341 C 18.563 153.409,17.894 153.722,17.982 154.037 C 18.070 154.352,16.410 156.298,14.293 158.362 C 6.771 165.697,3.880 176.413,6.632 186.758 C 7.469 189.904,8.178 192.976,8.207 193.584 C 8.236 194.192,8.446 194.504,8.674 194.276 C 8.902 194.048,10.286 195.671,11.751 197.882 C 20.912 211.713,36.749 215.879,80.310 215.916 C 89.192 215.923,96.460 216.278,96.460 216.704 C 96.460 217.411,113.341 228.830,118.582 231.669 C 119.798 232.327,121.422 233.436,122.192 234.132 C 122.961 234.828,123.962 235.398,124.415 235.398 C 124.868 235.398,126.420 236.493,127.864 237.832 C 129.307 239.170,130.510 240.066,130.536 239.823 C 130.562 239.580,133.359 241.168,136.752 243.353 C 140.144 245.538,143.319 247.489,143.805 247.689 C 145.484 248.378,148.612 251.094,148.200 251.505 C 147.973 251.732,148.323 251.917,148.978 251.917 C 150.015 251.917,155.941 255.353,163.591 260.388 C 164.877 261.235,166.425 262.173,167.030 262.472 C 167.636 262.772,167.873 263.435,167.557 263.946 C 167.242 264.457,167.385 264.627,167.876 264.324 C 168.625 263.861,172.922 266.287,183.672 273.241 C 184.621 273.855,187.290 275.582,189.602 277.078 C 191.914 278.574,193.805 280.185,193.805 280.659 C 193.805 281.133,194.124 281.323,194.514 281.082 C 194.904 280.841,198.588 282.818,202.700 285.476 C 210.257 290.359,210.361 290.493,211.826 297.297 C 212.164 298.866,214.159 299.664,214.159 298.230 C 214.159 297.647,215.218 298.012,216.593 299.069 C 221.233 302.639,231.872 309.795,233.410 310.382 C 234.260 310.707,235.752 311.715,236.726 312.622 C 237.699 313.530,240.686 315.723,243.363 317.497 C 246.040 319.271,248.628 321.056,249.115 321.464 C 249.602 321.871,251.246 323.082,252.769 324.155 C 254.292 325.228,259.614 329.292,264.596 333.186 C 276.509 342.496,276.412 342.450,283.892 342.465 C 297.722 342.493,299.861 329.393,287.236 321.984 C 284.765 320.535,280.951 318.189,278.761 316.772 C 274.496 314.012,271.730 312.618,270.434 312.575 C 269.991 312.560,269.274 311.915,268.841 311.141 C 268.408 310.368,267.297 309.735,266.372 309.735 C 265.447 309.735,264.371 309.215,263.982 308.580 C 263.593 307.945,261.681 306.472,259.735 305.308 C 257.788 304.143,255.996 302.924,255.752 302.598 C 255.509 302.272,252.920 300.493,250.000 298.645 C 247.080 296.797,244.491 295.052,244.248 294.766 C 243.690 294.113,240.685 292.217,238.938 291.416 C 238.208 291.081,237.147 290.349,236.580 289.790 C 233.422 286.674,221.983 280.456,220.357 280.972 C 219.237 281.328,218.584 281.133,218.584 280.443 C 218.584 279.842,218.334 279.601,218.029 279.906 C 217.246 280.689,213.326 278.540,202.804 271.555 C 197.775 268.218,193.481 265.487,193.262 265.487 C 192.896 265.487,184.513 260.201,178.423 256.130 C 177.020 255.192,175.220 254.027,174.422 253.540 C 173.625 253.053,171.784 251.858,170.332 250.885 C 168.880 249.912,166.897 248.628,165.925 248.033 C 164.954 247.438,160.837 244.849,156.777 242.281 C 152.717 239.712,148.731 237.212,147.919 236.726 C 144.128 234.452,130.440 225.802,121.239 219.867 C 115.642 216.256,109.596 212.505,107.803 211.531 C 106.011 210.557,104.232 209.256,103.849 208.641 C 102.443 206.381,99.293 196.004,99.775 195.223 C 100.049 194.779,99.860 194.672,99.354 194.985 C 98.849 195.297,97.979 194.451,97.421 193.104 C 94.878 186.965,84.708 174.506,78.126 169.467 C 76.073 167.895,74.679 166.293,75.029 165.906 C 75.378 165.519,75.213 165.460,74.662 165.775 C 74.110 166.090,72.532 165.461,71.155 164.378 C 66.772 160.930,54.543 154.399,47.566 151.780 C 45.254 150.912,43.363 149.957,43.363 149.659 C 43.363 147.982,28.334 149.203,24.804 151.166 M355.392 152.304 C 357.064 154.151,357.051 154.186,353.538 157.213 C 349.911 160.338,342.883 165.487,342.244 165.487 C 342.048 165.487,340.244 167.004,338.235 168.858 C 336.227 170.713,333.516 172.801,332.211 173.500 C 330.906 174.198,328.401 176.107,326.645 177.742 C 323.679 180.503,320.163 183.100,314.155 186.966 C 308.176 190.813,304.793 185.300,310.398 180.843 C 319.832 173.342,325.664 169.054,325.664 169.618 C 325.664 169.966,326.162 169.656,326.770 168.929 C 328.075 167.372,335.941 161.062,336.578 161.062 C 336.820 161.062,337.948 160.274,339.084 159.311 C 350.282 149.823,352.345 148.937,355.392 152.304 M107.754 155.198 L 106.296 158.255 110.449 159.206 C 112.733 159.729,118.783 160.566,123.894 161.065 C 129.004 161.565,138.164 162.704,144.248 163.598 C 159.274 165.804,234.769 165.645,251.770 163.372 C 268.516 161.132,279.797 160.046,281.101 160.546 C 281.761 160.799,282.301 160.621,282.301 160.149 C 282.301 159.678,283.273 159.292,284.461 159.292 C 287.481 159.292,287.975 157.969,286.124 154.836 C 284.324 151.789,282.722 151.761,263.274 154.429 C 258.407 155.096,253.827 155.656,253.097 155.671 C 252.367 155.687,248.584 156.088,244.690 156.563 C 240.796 157.038,219.292 157.427,196.903 157.427 C 174.513 157.427,153.009 157.038,149.115 156.563 C 145.221 156.088,141.438 155.685,140.708 155.668 C 139.978 155.651,136.593 155.246,133.186 154.768 C 123.681 153.436,122.149 153.256,115.446 152.678 L 109.211 152.141 107.754 155.198 M366.420 162.922 C 367.380 164.716,363.966 169.912,361.827 169.912 C 361.456 169.912,360.087 170.900,358.784 172.107 C 357.481 173.315,356.057 174.082,355.619 173.811 C 355.181 173.541,354.933 173.699,355.067 174.163 C 355.426 175.411,345.051 183.232,343.903 182.577 C 343.363 182.269,343.216 182.344,343.578 182.743 C 344.168 183.394,342.126 185.416,340.521 185.770 C 340.174 185.846,338.725 186.989,337.301 188.308 C 326.952 197.896,321.547 200.228,319.116 196.155 C 318.043 194.358,317.472 194.929,331.707 183.577 C 335.760 180.344,339.743 177.601,340.556 177.482 C 341.370 177.363,342.035 176.855,342.035 176.353 C 342.035 175.851,346.217 172.245,351.327 168.339 C 361.266 160.743,364.611 159.543,366.420 162.922 M61.728 168.814 C 61.932 169.424,62.463 169.697,62.910 169.421 C 64.658 168.341,71.705 174.650,74.008 179.357 C 78.385 188.304,72.507 201.167,63.182 203.045 C 62.259 203.231,60.383 203.816,59.013 204.346 C 50.146 207.776,34.749 202.129,30.634 193.938 C 28.226 189.143,28.003 179.685,30.333 181.125 C 30.875 181.460,30.978 181.255,30.586 180.620 C 28.988 178.034,36.731 170.588,43.281 168.413 C 47.490 167.016,61.229 167.314,61.728 168.814 M376.106 173.009 C 376.836 173.009,377.548 173.807,377.688 174.783 C 377.955 176.644,366.334 187.021,363.984 187.021 C 363.350 187.021,363.028 187.217,363.269 187.457 C 363.673 187.862,361.620 189.625,359.863 190.382 C 359.447 190.561,357.572 192.126,355.695 193.858 C 353.818 195.591,351.210 197.582,349.899 198.283 C 348.589 198.984,345.686 201.241,343.448 203.299 C 337.862 208.436,335.164 209.479,332.306 207.607 C 328.841 205.336,329.231 204.633,337.366 198.501 C 339.178 197.135,346.845 191.239,354.405 185.398 C 368.551 174.468,373.461 171.252,374.298 172.367 C 374.562 172.720,375.376 173.009,376.106 173.009 M130.979 174.115 C 130.994 175.811,143.229 190.265,144.650 190.265 C 144.847 190.265,147.352 191.822,150.217 193.725 C 153.082 195.628,158.185 198.649,161.557 200.438 C 164.929 202.227,167.983 204.154,168.344 204.721 C 168.704 205.288,169.006 205.408,169.013 204.987 C 169.020 204.566,170.022 204.874,171.239 205.671 C 172.456 206.468,173.451 206.907,173.451 206.646 C 173.451 206.385,174.945 206.809,176.770 207.589 C 178.595 208.369,183.075 209.993,186.726 211.198 C 190.376 212.402,193.702 213.721,194.116 214.128 C 194.530 214.536,195.924 214.536,197.213 214.129 C 201.736 212.700,211.980 208.988,215.265 207.586 C 217.091 206.808,218.584 206.338,218.584 206.542 C 218.584 207.128,236.241 197.526,241.207 194.240 C 246.921 190.459,253.761 184.310,258.348 178.832 L 261.940 174.541 259.758 174.124 C 258.558 173.895,257.750 173.989,257.964 174.335 C 259.163 176.275,231.754 185.006,220.201 186.363 C 216.157 186.839,214.603 186.614,211.822 185.152 C 195.404 176.520,197.296 176.731,186.226 182.294 C 180.626 185.108,176.309 186.707,174.336 186.699 C 170.463 186.682,152.092 182.169,147.345 180.068 C 145.398 179.206,143.231 178.385,142.530 178.242 C 138.444 177.412,137.153 176.846,137.620 176.090 C 137.909 175.624,137.578 175.459,136.886 175.725 C 136.193 175.991,135.068 175.687,134.385 175.051 C 132.934 173.699,130.971 173.159,130.979 174.115 M122.124 183.097 C 122.124 184.378,128.277 190.127,140.480 200.246 C 145.229 204.184,148.518 207.157,147.788 206.853 C 138.548 203.000,136.201 201.920,134.129 200.562 C 132.796 199.688,131.531 199.148,131.318 199.360 C 130.582 200.096,132.053 202.655,133.213 202.655 C 133.853 202.655,135.561 203.650,137.007 204.867 C 138.453 206.084,140.015 207.080,140.477 207.080 C 140.940 207.080,142.039 207.876,142.920 208.850 C 143.801 209.823,145.029 210.619,145.648 210.619 C 146.267 210.619,147.510 211.515,148.409 212.611 C 149.307 213.706,150.629 214.734,151.346 214.896 C 152.814 215.227,155.062 216.914,154.622 217.354 C 154.259 217.717,142.192 213.657,139.753 212.352 C 135.668 210.165,133.889 210.434,136.488 212.844 C 137.793 214.054,139.248 215.044,139.720 215.044 C 140.193 215.044,141.405 216.094,142.414 217.376 C 143.422 218.658,144.248 219.442,144.248 219.118 C 144.248 218.403,154.302 225.696,154.720 226.714 C 154.882 227.110,155.479 227.443,156.047 227.454 C 157.666 227.485,166.471 233.216,165.952 233.901 C 165.696 234.238,165.734 234.333,166.036 234.112 C 166.338 233.891,169.020 234.940,171.998 236.443 C 187.687 244.363,198.777 245.763,209.632 241.193 C 212.652 239.922,215.504 239.118,215.969 239.405 C 216.434 239.692,216.814 239.568,216.814 239.130 C 216.814 238.691,218.301 237.572,220.117 236.644 C 221.934 235.715,226.215 233.199,229.631 231.052 C 233.046 228.905,236.321 227.146,236.908 227.143 C 237.495 227.141,237.833 226.906,237.660 226.622 C 237.486 226.338,240.737 223.717,244.885 220.796 C 257.333 212.031,261.183 207.564,252.049 212.484 C 249.268 213.982,238.624 217.680,238.229 217.285 C 238.055 217.111,240.787 215.042,244.300 212.687 C 247.814 210.333,251.572 207.810,252.651 207.080 C 253.731 206.350,256.861 204.264,259.608 202.445 C 268.622 196.475,262.701 197.920,249.470 204.920 C 248.205 205.589,246.015 206.541,244.603 207.035 L 242.035 207.934 244.239 206.400 C 253.605 199.885,271.736 183.784,270.741 182.865 C 270.528 182.669,265.973 185.850,260.619 189.935 C 242.295 203.917,231.013 211.633,229.901 210.946 C 229.517 210.709,229.204 210.929,229.204 211.434 C 229.204 212.486,222.131 216.324,222.110 215.283 C 222.103 214.909,221.795 215.076,221.427 215.656 C 220.653 216.872,205.735 223.894,203.924 223.894 C 203.259 223.894,201.288 224.574,199.545 225.406 C 195.382 227.391,182.686 223.260,169.469 215.621 C 167.522 214.496,164.341 212.664,162.399 211.551 C 156.243 208.021,150.442 204.035,150.442 203.333 C 150.442 202.960,150.047 202.655,149.563 202.655 C 148.682 202.655,127.870 187.244,124.115 183.812 C 122.906 182.707,122.124 182.426,122.124 183.097 M385.899 184.987 C 386.840 185.491,387.611 186.458,387.611 187.137 C 387.611 188.273,374.550 199.290,372.983 199.476 C 372.604 199.521,370.463 201.246,368.226 203.309 C 365.989 205.373,363.695 207.065,363.127 207.070 C 362.559 207.075,361.962 207.391,361.799 207.772 C 360.684 210.390,348.139 218.651,345.648 218.408 C 341.757 218.028,341.285 214.078,344.858 211.799 C 346.226 210.927,349.600 208.413,352.357 206.213 C 355.113 204.012,360.090 200.221,363.417 197.788 C 366.744 195.354,372.033 191.272,375.171 188.717 C 380.965 183.997,382.835 183.347,385.899 184.987 M45.422 226.229 L 43.097 229.277 46.457 232.355 C 48.306 234.048,49.904 235.326,50.010 235.194 C 50.116 235.063,50.675 234.049,51.252 232.940 C 51.868 231.757,52.740 231.176,53.363 231.533 C 53.947 231.868,54.131 231.818,53.773 231.422 C 53.414 231.026,53.957 229.348,54.980 227.694 C 57.209 224.087,57.267 224.165,51.971 223.617 C 47.982 223.205,47.617 223.350,45.422 226.229 M80.531 224.394 C 80.531 224.912,81.825 226.005,83.407 226.822 C 84.989 227.639,88.812 229.904,91.903 231.853 C 98.717 236.151,98.589 236.144,99.772 232.290 C 100.631 229.491,100.536 229.083,98.814 228.197 C 97.763 227.655,96.039 226.427,94.984 225.467 C 92.821 223.499,80.530 222.586,80.531 224.394 M297.019 226.857 C 293.538 229.226,292.996 229.979,293.425 231.858 C 294.249 235.466,295.328 235.914,298.159 233.821 C 299.586 232.765,301.236 231.793,301.824 231.659 C 303.654 231.243,307.267 227.569,306.719 226.681 C 305.056 223.990,301.127 224.061,297.019 226.857 M68.562 230.440 C 67.738 231.698,66.647 232.471,66.138 232.157 C 65.629 231.842,65.467 231.996,65.778 232.498 C 66.088 233.001,64.955 235.229,63.260 237.449 C 61.564 239.670,60.177 241.865,60.177 242.327 C 60.177 243.243,88.349 262.397,88.881 261.843 C 89.338 261.368,95.575 245.794,95.575 245.130 C 95.575 244.830,92.290 242.648,88.274 240.280 C 80.148 235.488,76.865 233.165,77.426 232.604 C 77.632 232.398,76.969 232.167,75.953 232.090 C 74.938 232.014,73.196 231.096,72.084 230.051 L 70.062 228.151 68.562 230.440 M314.776 233.415 C 313.045 234.749,308.582 237.778,304.859 240.147 C 298.604 244.126,298.137 244.630,298.707 246.784 C 299.046 248.066,299.376 249.712,299.441 250.442 C 299.505 251.173,300.005 252.246,300.552 252.827 C 301.098 253.409,302.081 255.699,302.736 257.916 C 303.391 260.133,304.177 261.947,304.483 261.947 C 305.232 261.947,318.509 253.057,325.772 247.692 C 328.995 245.311,332.081 243.363,332.630 243.363 C 334.552 243.363,333.679 241.910,327.230 234.379 C 324.103 230.727,318.796 230.316,314.776 233.415 M354.867 236.851 C 354.867 238.121,335.189 254.079,324.774 261.256 C 323.560 262.093,320.973 263.976,319.027 265.441 C 317.080 266.905,314.690 268.485,313.717 268.950 C 306.191 272.549,304.577 280.603,311.253 281.248 C 315.770 281.685,349.780 256.931,360.136 245.669 L 362.308 243.307 358.587 239.587 C 356.541 237.541,354.867 236.310,354.867 236.851 M34.292 240.218 C 32.954 241.896,31.858 243.632,31.858 244.078 C 31.858 244.783,43.488 256.104,44.361 256.249 C 45.097 256.372,55.375 264.338,57.903 266.746 C 59.397 268.169,60.737 269.239,60.880 269.125 C 61.023 269.011,63.214 270.424,65.747 272.266 C 68.281 274.107,71.748 276.572,73.451 277.742 C 75.155 278.913,76.841 280.318,77.199 280.864 C 77.556 281.411,77.855 281.537,77.863 281.145 C 77.870 280.752,78.761 281.051,79.843 281.808 C 83.320 284.244,84.563 283.570,85.703 278.633 C 86.696 274.331,86.645 274.002,84.781 272.659 C 83.696 271.878,79.409 268.881,75.254 265.998 C 58.632 254.468,39.844 239.888,39.086 237.929 C 38.485 236.380,36.659 237.252,34.292 240.218 M176.991 282.503 C 175.288 283.571,173.695 284.660,173.451 284.922 C 172.637 285.799,169.486 287.656,167.920 288.182 C 167.069 288.468,166.372 289.027,166.372 289.424 C 166.372 289.821,165.562 290.403,164.573 290.717 C 163.584 291.031,161.734 292.252,160.462 293.432 C 159.190 294.611,157.643 295.575,157.024 295.575 C 156.406 295.575,155.767 295.874,155.605 296.239 C 155.196 297.159,149.799 300.885,148.875 300.885 C 148.461 300.885,147.261 301.686,146.210 302.666 C 145.158 303.646,142.525 305.537,140.359 306.870 C 138.193 308.202,133.954 310.985,130.941 313.053 C 127.928 315.122,125.142 316.814,124.752 316.814 C 124.361 316.814,123.909 317.129,123.746 317.513 C 123.584 317.897,121.261 319.533,118.584 321.149 C 111.868 325.203,109.851 327.241,109.218 330.615 C 106.988 342.504,120.833 346.750,130.941 337.277 C 132.176 336.120,134.779 334.128,136.726 332.852 C 138.673 331.575,141.257 329.635,142.469 328.540 C 143.681 327.445,145.187 326.549,145.815 326.549 C 146.444 326.549,147.187 325.951,147.468 325.221 C 147.748 324.491,148.349 323.894,148.805 323.894 C 149.260 323.894,150.113 323.495,150.701 323.007 C 157.244 317.579,161.854 314.159,162.626 314.159 C 163.145 314.159,163.702 313.833,163.864 313.434 C 164.027 313.035,166.748 310.978,169.912 308.863 C 173.075 306.747,176.921 303.987,178.459 302.729 C 179.996 301.472,183.464 298.850,186.165 296.903 C 192.261 292.509,192.261 292.536,186.012 285.948 C 180.081 279.696,180.942 280.025,176.991 282.503 M123.388 329.709 C 126.591 332.912,122.448 338.334,118.419 336.212 C 113.523 333.632,114.527 328.319,119.912 328.319 C 121.059 328.319,122.623 328.944,123.388 329.709 M286.217 330.900 C 288.350 333.257,286.728 336.283,283.332 336.283 C 278.842 336.283,277.033 332.077,280.752 330.284 C 283.623 328.899,284.495 328.997,286.217 330.900 " stroke="none" fill="#000000" fill-rule="evenodd"></path></g></svg>